# xmcd CD database file
#
# Track frame offsets:
#	150
#	17607
#	31191
#	50007
#	64083
#	79084
#	99207
#	114619
#	133250
#	147024
#	162542
#
# Disc length: 2492 seconds
#
# Revision: 0
# Processed by: cddbd v1.5.2PL0 Copyright (c) Steve Scherf et al.
# Submitted via: CDex 1.51
#
DISCID=8f09ba0b
DTITLE=J. Roddy Walston and The Business - Essential Tremors
DYEAR=2013
DGENRE=Blues
TTITLE0=Heavy Bells
TTITLE1=Marigold
TTITLE2=Take It As It Comes
TTITLE3=Black Light
TTITLE4=Sweat Shock
TTITLE5=Nobody Knows
TTITLE6=Hard Times
TTITLE7=Boys Can Never Tell
TTITLE8=Same Days
TTITLE9=Tear Jerk
TTITLE10=Midnight Cry
EXTD=YEAR: 2013
EXTT0=
EXTT1=
EXTT2=
EXTT3=
EXTT4=
EXTT5=
EXTT6=
EXTT7=
EXTT8=
EXTT9=
EXTT10=
PLAYORDER=
